<mxfile host="app.diagrams.net" modified="2024-04-13T10:41:58.526Z" agent="Mozilla/5.0 (Windows NT 10.0; Win64; x64) AppleWebKit/537.36 (KHTML, like Gecko) Chrome/123.0.0.0 Safari/537.36" etag="iv4dMn7DvYWrxU87bLSZ" version="24.2.5" type="device">
  <diagram name="Pagina-1" id="j6S3ffcNrz-rmfTzFmBk">
    <mxGraphModel dx="503" dy="267" grid="1" gridSize="10" guides="1" tooltips="1" connect="1" arrows="1" fold="1" page="1" pageScale="1" pageWidth="827" pageHeight="1169" math="0" shadow="0">
      <root>
        <mxCell id="0" />
        <mxCell id="1" parent="0" />
        <mxCell id="CZQ-tZ09j_WSSHZXDvkV-1" value="Utente" style="rounded=1;arcSize=10;whiteSpace=wrap;html=1;align=center;" parent="1" vertex="1">
          <mxGeometry x="420" y="120" width="100" height="40" as="geometry" />
        </mxCell>
        <mxCell id="CZQ-tZ09j_WSSHZXDvkV-2" value="Password" style="ellipse;whiteSpace=wrap;html=1;align=center;" parent="1" vertex="1">
          <mxGeometry x="360" y="40" width="100" height="40" as="geometry" />
        </mxCell>
        <mxCell id="CZQ-tZ09j_WSSHZXDvkV-3" value="Email" style="ellipse;whiteSpace=wrap;html=1;align=center;fontStyle=4;" parent="1" vertex="1">
          <mxGeometry x="470" y="40" width="100" height="40" as="geometry" />
        </mxCell>
        <mxCell id="CZQ-tZ09j_WSSHZXDvkV-4" style="rounded=0;orthogonalLoop=1;jettySize=auto;html=1;entryX=0.75;entryY=0;entryDx=0;entryDy=0;" parent="1" source="CZQ-tZ09j_WSSHZXDvkV-3" edge="1" target="CZQ-tZ09j_WSSHZXDvkV-1">
          <mxGeometry relative="1" as="geometry">
            <mxPoint x="470" y="120" as="targetPoint" />
          </mxGeometry>
        </mxCell>
        <mxCell id="CZQ-tZ09j_WSSHZXDvkV-5" style="rounded=0;orthogonalLoop=1;jettySize=auto;html=1;entryX=0.25;entryY=0;entryDx=0;entryDy=0;" parent="1" source="CZQ-tZ09j_WSSHZXDvkV-2" target="CZQ-tZ09j_WSSHZXDvkV-1" edge="1">
          <mxGeometry relative="1" as="geometry">
            <mxPoint x="450" y="110" as="targetPoint" />
          </mxGeometry>
        </mxCell>
        <mxCell id="CZQ-tZ09j_WSSHZXDvkV-8" style="rounded=0;orthogonalLoop=1;jettySize=auto;html=1;entryX=1;entryY=0;entryDx=0;entryDy=0;" parent="1" source="CZQ-tZ09j_WSSHZXDvkV-7" target="CZQ-tZ09j_WSSHZXDvkV-1" edge="1">
          <mxGeometry relative="1" as="geometry" />
        </mxCell>
        <mxCell id="CZQ-tZ09j_WSSHZXDvkV-7" value="Immagine&amp;nbsp;&lt;div&gt;profilo&lt;/div&gt;" style="ellipse;whiteSpace=wrap;html=1;align=center;" parent="1" vertex="1">
          <mxGeometry x="550" y="100" width="100" height="40" as="geometry" />
        </mxCell>
        <mxCell id="CZQ-tZ09j_WSSHZXDvkV-14" style="edgeStyle=orthogonalEdgeStyle;rounded=0;orthogonalLoop=1;jettySize=auto;html=1;entryX=0.5;entryY=1;entryDx=0;entryDy=0;endArrow=block;endFill=1;" parent="1" source="CZQ-tZ09j_WSSHZXDvkV-9" target="CZQ-tZ09j_WSSHZXDvkV-1" edge="1">
          <mxGeometry relative="1" as="geometry" />
        </mxCell>
        <mxCell id="CZQ-tZ09j_WSSHZXDvkV-9" value="Artigiano" style="rounded=1;arcSize=10;whiteSpace=wrap;html=1;align=center;" parent="1" vertex="1">
          <mxGeometry x="360" y="220" width="100" height="40" as="geometry" />
        </mxCell>
        <mxCell id="CZQ-tZ09j_WSSHZXDvkV-11" value="Visitatore" style="rounded=1;arcSize=10;whiteSpace=wrap;html=1;align=center;" parent="1" vertex="1">
          <mxGeometry x="480" y="220" width="100" height="40" as="geometry" />
        </mxCell>
        <mxCell id="CZQ-tZ09j_WSSHZXDvkV-17" value="" style="endArrow=none;html=1;rounded=0;entryX=0.5;entryY=0;entryDx=0;entryDy=0;" parent="1" target="CZQ-tZ09j_WSSHZXDvkV-11" edge="1">
          <mxGeometry relative="1" as="geometry">
            <mxPoint x="470" y="190" as="sourcePoint" />
            <mxPoint x="850" y="150" as="targetPoint" />
            <Array as="points">
              <mxPoint x="530" y="190" />
            </Array>
          </mxGeometry>
        </mxCell>
        <mxCell id="CZQ-tZ09j_WSSHZXDvkV-18" value="Promuove" style="shape=rhombus;perimeter=rhombusPerimeter;whiteSpace=wrap;html=1;align=center;" parent="1" vertex="1">
          <mxGeometry x="330" y="290" width="120" height="60" as="geometry" />
        </mxCell>
        <mxCell id="CZQ-tZ09j_WSSHZXDvkV-19" value="Negozio" style="rounded=1;arcSize=10;whiteSpace=wrap;html=1;align=center;" parent="1" vertex="1">
          <mxGeometry x="420" y="380" width="100" height="40" as="geometry" />
        </mxCell>
        <mxCell id="CZQ-tZ09j_WSSHZXDvkV-20" value="Salva" style="shape=rhombus;perimeter=rhombusPerimeter;whiteSpace=wrap;html=1;align=center;" parent="1" vertex="1">
          <mxGeometry x="490" y="290" width="120" height="60" as="geometry" />
        </mxCell>
        <mxCell id="CZQ-tZ09j_WSSHZXDvkV-26" style="rounded=0;orthogonalLoop=1;jettySize=auto;html=1;entryX=0.5;entryY=1;entryDx=0;entryDy=0;" parent="1" source="CZQ-tZ09j_WSSHZXDvkV-25" target="CZQ-tZ09j_WSSHZXDvkV-19" edge="1">
          <mxGeometry relative="1" as="geometry" />
        </mxCell>
        <mxCell id="CZQ-tZ09j_WSSHZXDvkV-25" value="Codice" style="ellipse;whiteSpace=wrap;html=1;align=center;fontStyle=4;" parent="1" vertex="1">
          <mxGeometry x="420" y="480" width="100" height="40" as="geometry" />
        </mxCell>
        <mxCell id="CZQ-tZ09j_WSSHZXDvkV-28" style="rounded=0;orthogonalLoop=1;jettySize=auto;html=1;entryX=0;entryY=1;entryDx=0;entryDy=0;" parent="1" source="CZQ-tZ09j_WSSHZXDvkV-27" target="CZQ-tZ09j_WSSHZXDvkV-19" edge="1">
          <mxGeometry relative="1" as="geometry" />
        </mxCell>
        <mxCell id="CZQ-tZ09j_WSSHZXDvkV-27" value="Indirizzo" style="ellipse;whiteSpace=wrap;html=1;align=center;" parent="1" vertex="1">
          <mxGeometry x="310" y="470" width="100" height="40" as="geometry" />
        </mxCell>
        <mxCell id="CZQ-tZ09j_WSSHZXDvkV-30" style="rounded=0;orthogonalLoop=1;jettySize=auto;html=1;entryX=1;entryY=1;entryDx=0;entryDy=0;" parent="1" source="CZQ-tZ09j_WSSHZXDvkV-29" target="CZQ-tZ09j_WSSHZXDvkV-19" edge="1">
          <mxGeometry relative="1" as="geometry" />
        </mxCell>
        <mxCell id="CZQ-tZ09j_WSSHZXDvkV-29" value="Nome" style="ellipse;whiteSpace=wrap;html=1;align=center;" parent="1" vertex="1">
          <mxGeometry x="530" y="470" width="100" height="40" as="geometry" />
        </mxCell>
        <mxCell id="CZQ-tZ09j_WSSHZXDvkV-32" style="rounded=0;orthogonalLoop=1;jettySize=auto;html=1;entryX=1;entryY=0.75;entryDx=0;entryDy=0;" parent="1" source="CZQ-tZ09j_WSSHZXDvkV-31" target="CZQ-tZ09j_WSSHZXDvkV-19" edge="1">
          <mxGeometry relative="1" as="geometry" />
        </mxCell>
        <mxCell id="CZQ-tZ09j_WSSHZXDvkV-31" value="Tipologia" style="ellipse;whiteSpace=wrap;html=1;align=center;" parent="1" vertex="1">
          <mxGeometry x="620" y="430" width="100" height="40" as="geometry" />
        </mxCell>
        <mxCell id="CZQ-tZ09j_WSSHZXDvkV-34" style="rounded=0;orthogonalLoop=1;jettySize=auto;html=1;entryX=0;entryY=0.75;entryDx=0;entryDy=0;" parent="1" source="CZQ-tZ09j_WSSHZXDvkV-33" target="CZQ-tZ09j_WSSHZXDvkV-19" edge="1">
          <mxGeometry relative="1" as="geometry" />
        </mxCell>
        <mxCell id="CZQ-tZ09j_WSSHZXDvkV-33" value="Orario" style="ellipse;whiteSpace=wrap;html=1;align=center;" parent="1" vertex="1">
          <mxGeometry x="230" y="430" width="100" height="40" as="geometry" />
        </mxCell>
        <mxCell id="CZQ-tZ09j_WSSHZXDvkV-40" value="" style="endArrow=none;html=1;rounded=0;exitX=0.5;exitY=1;exitDx=0;exitDy=0;entryX=0.5;entryY=0;entryDx=0;entryDy=0;" parent="1" source="CZQ-tZ09j_WSSHZXDvkV-9" target="CZQ-tZ09j_WSSHZXDvkV-18" edge="1">
          <mxGeometry relative="1" as="geometry">
            <mxPoint x="500" y="210" as="sourcePoint" />
            <mxPoint x="660" y="210" as="targetPoint" />
          </mxGeometry>
        </mxCell>
        <mxCell id="CZQ-tZ09j_WSSHZXDvkV-41" value="" style="endArrow=none;html=1;rounded=0;exitX=0.5;exitY=1;exitDx=0;exitDy=0;entryX=0.75;entryY=0;entryDx=0;entryDy=0;" parent="1" source="CZQ-tZ09j_WSSHZXDvkV-20" target="CZQ-tZ09j_WSSHZXDvkV-19" edge="1">
          <mxGeometry relative="1" as="geometry">
            <mxPoint x="420" y="270" as="sourcePoint" />
            <mxPoint x="400" y="300" as="targetPoint" />
          </mxGeometry>
        </mxCell>
        <mxCell id="CZQ-tZ09j_WSSHZXDvkV-42" value="" style="endArrow=none;html=1;rounded=0;exitX=0.5;exitY=1;exitDx=0;exitDy=0;entryX=0.5;entryY=0;entryDx=0;entryDy=0;" parent="1" source="CZQ-tZ09j_WSSHZXDvkV-11" target="CZQ-tZ09j_WSSHZXDvkV-20" edge="1">
          <mxGeometry relative="1" as="geometry">
            <mxPoint x="500" y="210" as="sourcePoint" />
            <mxPoint x="660" y="210" as="targetPoint" />
          </mxGeometry>
        </mxCell>
        <mxCell id="CZQ-tZ09j_WSSHZXDvkV-43" value="" style="endArrow=none;html=1;rounded=0;exitX=0.5;exitY=1;exitDx=0;exitDy=0;entryX=0.25;entryY=0;entryDx=0;entryDy=0;" parent="1" source="CZQ-tZ09j_WSSHZXDvkV-18" target="CZQ-tZ09j_WSSHZXDvkV-19" edge="1">
          <mxGeometry relative="1" as="geometry">
            <mxPoint x="540" y="270" as="sourcePoint" />
            <mxPoint x="560" y="300" as="targetPoint" />
          </mxGeometry>
        </mxCell>
        <mxCell id="CZQ-tZ09j_WSSHZXDvkV-49" value="(1;1)" style="resizable=0;html=1;whiteSpace=wrap;align=right;verticalAlign=bottom;" parent="1" connectable="0" vertex="1">
          <mxGeometry x="460" y="370" as="geometry" />
        </mxCell>
        <mxCell id="CZQ-tZ09j_WSSHZXDvkV-50" value="(1,N)" style="resizable=0;html=1;whiteSpace=wrap;align=right;verticalAlign=bottom;" parent="1" connectable="0" vertex="1">
          <mxGeometry x="430" y="280" as="geometry" />
        </mxCell>
        <mxCell id="CZQ-tZ09j_WSSHZXDvkV-51" value="(0;N)" style="resizable=0;html=1;whiteSpace=wrap;align=right;verticalAlign=bottom;" parent="1" connectable="0" vertex="1">
          <mxGeometry x="540" y="280" as="geometry" />
        </mxCell>
        <mxCell id="CZQ-tZ09j_WSSHZXDvkV-52" value="(0;N)" style="resizable=0;html=1;whiteSpace=wrap;align=right;verticalAlign=bottom;" parent="1" connectable="0" vertex="1">
          <mxGeometry x="510" y="370" as="geometry" />
        </mxCell>
        <mxCell id="CZQ-tZ09j_WSSHZXDvkV-54" value="Partecipa" style="shape=rhombus;perimeter=rhombusPerimeter;whiteSpace=wrap;html=1;align=center;" parent="1" vertex="1">
          <mxGeometry x="190" y="210" width="120" height="60" as="geometry" />
        </mxCell>
        <mxCell id="CZQ-tZ09j_WSSHZXDvkV-55" value="Evento" style="rounded=1;arcSize=10;whiteSpace=wrap;html=1;align=center;" parent="1" vertex="1">
          <mxGeometry x="40" y="220" width="100" height="40" as="geometry" />
        </mxCell>
        <mxCell id="CZQ-tZ09j_WSSHZXDvkV-57" value="" style="endArrow=none;html=1;rounded=0;exitX=1;exitY=0.5;exitDx=0;exitDy=0;entryX=0;entryY=0.5;entryDx=0;entryDy=0;" parent="1" source="CZQ-tZ09j_WSSHZXDvkV-54" target="CZQ-tZ09j_WSSHZXDvkV-9" edge="1">
          <mxGeometry relative="1" as="geometry">
            <mxPoint x="260" y="250" as="sourcePoint" />
            <mxPoint x="420" y="250" as="targetPoint" />
          </mxGeometry>
        </mxCell>
        <mxCell id="CZQ-tZ09j_WSSHZXDvkV-58" value="" style="endArrow=none;html=1;rounded=0;exitX=1;exitY=0.5;exitDx=0;exitDy=0;entryX=0;entryY=0.5;entryDx=0;entryDy=0;" parent="1" source="CZQ-tZ09j_WSSHZXDvkV-55" target="CZQ-tZ09j_WSSHZXDvkV-54" edge="1">
          <mxGeometry relative="1" as="geometry">
            <mxPoint x="320" y="250" as="sourcePoint" />
            <mxPoint x="370" y="250" as="targetPoint" />
          </mxGeometry>
        </mxCell>
        <mxCell id="CZQ-tZ09j_WSSHZXDvkV-59" value="(0;N)" style="resizable=0;html=1;whiteSpace=wrap;align=right;verticalAlign=bottom;" parent="1" connectable="0" vertex="1">
          <mxGeometry x="360" y="240" as="geometry" />
        </mxCell>
        <mxCell id="CZQ-tZ09j_WSSHZXDvkV-60" value="(1;N)" style="resizable=0;html=1;whiteSpace=wrap;align=right;verticalAlign=bottom;" parent="1" connectable="0" vertex="1">
          <mxGeometry x="170" y="240" as="geometry" />
        </mxCell>
        <mxCell id="skzfHMKbkWhP84cRmqXy-2" style="rounded=0;orthogonalLoop=1;jettySize=auto;html=1;entryX=0;entryY=0;entryDx=0;entryDy=0;" edge="1" parent="1" source="skzfHMKbkWhP84cRmqXy-1" target="CZQ-tZ09j_WSSHZXDvkV-1">
          <mxGeometry relative="1" as="geometry" />
        </mxCell>
        <mxCell id="skzfHMKbkWhP84cRmqXy-1" value="Username" style="ellipse;whiteSpace=wrap;html=1;align=center;" vertex="1" parent="1">
          <mxGeometry x="290" y="100" width="100" height="40" as="geometry" />
        </mxCell>
      </root>
    </mxGraphModel>
  </diagram>
</mxfile>
